<svg width="33" height="41" viewBox="0 0 33 41" fill="none" xmlns="http://www.w3.org/2000/svg">
<path d="M30.9168 10.6165H24.8668V8.59987C24.8668 6.46046 24.0169 4.40867 22.5041 2.89588C20.9913 1.38308 18.9395 0.533203 16.8001 0.533203C14.6607 0.533203 12.6089 1.38308 11.0961 2.89588C9.58329 4.40867 8.73342 6.46046 8.73342 8.59987V10.6165H2.68341C2.14856 10.6165 1.63561 10.829 1.25742 11.2072C0.879218 11.5854 0.666748 12.0983 0.666748 12.6332V34.8165C0.666748 36.4211 1.30416 37.9599 2.43875 39.0945C3.57335 40.2291 5.11219 40.8665 6.71675 40.8665H26.8834C28.488 40.8665 30.0268 40.2291 31.1614 39.0945C32.296 37.9599 32.9334 36.4211 32.9334 34.8165V12.6332C32.9334 12.0983 32.721 11.5854 32.3428 11.2072C31.9646 10.829 31.4516 10.6165 30.9168 10.6165ZM12.7667 8.59987C12.7667 7.53016 13.1917 6.50427 13.9481 5.74787C14.7045 4.99148 15.7304 4.56654 16.8001 4.56654C17.8698 4.56654 18.8957 4.99148 19.6521 5.74787C20.4085 6.50427 20.8334 7.53016 20.8334 8.59987V10.6165H12.7667V8.59987ZM28.9001 34.8165C28.9001 35.3514 28.6876 35.8643 28.3094 36.2425C27.9312 36.6207 27.4183 36.8332 26.8834 36.8332H6.71675C6.1819 36.8332 5.66895 36.6207 5.29075 36.2425C4.91255 35.8643 4.70008 35.3514 4.70008 34.8165V14.6499H8.73342V16.6665C8.73342 17.2014 8.94589 17.7143 9.32408 18.0925C9.70228 18.4707 10.2152 18.6832 10.7501 18.6832C11.2849 18.6832 11.7979 18.4707 12.1761 18.0925C12.5543 17.7143 12.7667 17.2014 12.7667 16.6665V14.6499H20.8334V16.6665C20.8334 17.2014 21.0459 17.7143 21.4241 18.0925C21.8023 18.4707 22.3152 18.6832 22.8501 18.6832C23.3849 18.6832 23.8979 18.4707 24.2761 18.0925C24.6543 17.7143 24.8668 17.2014 24.8668 16.6665V14.6499H28.9001V34.8165Z" fill="black"/>
</svg>
