<svg width="45" height="29" viewBox="0 0 45 29" fill="none" xmlns="http://www.w3.org/2000/svg">
<path d="M30.2666 12.6833C33.6143 12.6833 36.2964 9.98092 36.2964 6.63325C36.2964 3.28559 33.6143 0.583252 30.2666 0.583252C26.9189 0.583252 24.2166 3.28559 24.2166 6.63325C24.2166 9.98092 26.9189 12.6833 30.2666 12.6833ZM14.1333 12.6833C17.4809 12.6833 20.1631 9.98092 20.1631 6.63325C20.1631 3.28559 17.4809 0.583252 14.1333 0.583252C10.7856 0.583252 8.08327 3.28559 8.08327 6.63325C8.08327 9.98092 10.7856 12.6833 14.1333 12.6833ZM14.1333 16.7166C9.43443 16.7166 0.0166016 19.0761 0.0166016 23.7749V28.8166H28.2499V23.7749C28.2499 19.0761 18.8321 16.7166 14.1333 16.7166ZM30.2666 16.7166C29.6818 16.7166 29.0163 16.7569 28.3104 16.8174C30.6498 18.5114 32.2833 20.7903 32.2833 23.7749V28.8166H44.3833V23.7749C44.3833 19.0761 34.9654 16.7166 30.2666 16.7166Z" fill="black"/>
</svg>
